HIERARCHY
ROOT Hips
{
 OFFSET 0.000000 0.000000 0.000000
 CHANNELS 6 Xposition Yposition Zposition Yrotation Xrotation Zrotation
 JOINT Chest
 {
  OFFSET 0.000000 9.585900 0.002600
  CHANNELS 3 Yrotation Xrotation Zrotation
  JOINT Chest2
  {
   OFFSET 0.000000 9.601200 -0.005300
   CHANNELS 3 Yrotation Xrotation Zrotation
   JOINT Chest3
   {
    OFFSET 0.000000 9.561800 0.000000
    CHANNELS 3 Yrotation Xrotation Zrotation
    JOINT Chest4
    {
     OFFSET 0.000000 9.552100 0.000000
     CHANNELS 3 Yrotation Xrotation Zrotation
     JOINT Neck
     {
      OFFSET 0.000000 14.453000 0.000000
      CHANNELS 3 Yrotation Xrotation Zrotation
      JOINT Head
      {
       OFFSET 0.000000 8.936500 -0.011300
       CHANNELS 3 Yrotation Xrotation Zrotation
       End Site
       {
        OFFSET 0.000000 17.073600 -0.006000
       }
      }
     }
     JOINT RightCollar
     {
      OFFSET -2.921100 9.558500 0.000000
      CHANNELS 3 Yrotation Xrotation Zrotation
      JOINT RightShoulder
      {
       OFFSET -13.519700 0.000000 0.000000
       CHANNELS 3 Yrotation Xrotation Zrotation
       JOINT RightElbow
       {
        OFFSET 0.000000 -29.696600 0.000000
        CHANNELS 3 Yrotation Xrotation Zrotation
        JOINT RightWrist
        {
         OFFSET 0.000000 -24.004700 0.000000
         CHANNELS 3 Yrotation Xrotation Zrotation
         End Site
         {
          OFFSET 0.000000 -17.728500 0.000000
         }
        }
       }
      }
     }
     JOINT LeftCollar
     {
      OFFSET 2.921100 9.558500 0.000000
      CHANNELS 3 Yrotation Xrotation Zrotation
      JOINT LeftShoulder
      {
       OFFSET 13.519700 0.000000 0.000000
       CHANNELS 3 Yrotation Xrotation Zrotation
       JOINT LeftElbow
       {
        OFFSET 0.000000 -29.696600 0.000000
        CHANNELS 3 Yrotation Xrotation Zrotation
        JOINT LeftWrist
        {
         OFFSET 0.000000 -24.004700 0.000000
         CHANNELS 3 Yrotation Xrotation Zrotation
         End Site
         {
          OFFSET 0.000000 -17.728500 0.000000
         }
        }
       }
      }
     }
    }
   }
  }
 }
 JOINT RightHip
 {
  OFFSET -7.771700 -0.012900 -0.001300
  CHANNELS 3 Yrotation Xrotation Zrotation
  JOINT RightKnee
  {
   OFFSET 0.000000 -40.869800 0.001200
   CHANNELS 3 Yrotation Xrotation Zrotation
   JOINT RightAnkle
   {
    OFFSET 0.000000 -39.717900 0.002100
    CHANNELS 3 Yrotation Xrotation Zrotation
    JOINT RightToe
    {
     OFFSET 0.000000 -4.965400 11.033500
     CHANNELS 3 Yrotation Xrotation Zrotation
     End Site
     {
      OFFSET 0.000000 -1.423100 5.872300
     }
    }
   }
  }
 }
 JOINT LeftHip
 {
  OFFSET 7.771700 -0.012900 -0.001300
  CHANNELS 3 Yrotation Xrotation Zrotation
  JOINT LeftKnee
  {
   OFFSET 0.000000 -40.869800 0.001200
   CHANNELS 3 Yrotation Xrotation Zrotation
   JOINT LeftAnkle
   {
    OFFSET 0.000000 -39.717900 0.002100
    CHANNELS 3 Yrotation Xrotation Zrotation
    JOINT LeftToe
    {
     OFFSET 0.000000 -4.965400 11.033500
     CHANNELS 3 Yrotation Xrotation Zrotation
     End Site
     {
      OFFSET 0.000000 -1.423100 5.872300
     }
    }
   }
  }
 }
}
MOTION
Frames: 12
Frame Time: 0.008333
0.000000 85.388000 0.000000 0.000000 -5.767877 0.000000 0.000000 11.653817 0.000000 0.000000 -5.885947 0.000000 0.000000 -0.000000 0.000000 0.000000 -0.000000 0.000000 0.000000 12.528835 0.000000 0.000000 0.711642 0.000000 0.000000 -0.000000 0.000000 0.000000 0.000000 -90.000000 0.000000 -2.309062 0.000000 0.000000 2.309062 0.000000 0.000000 -0.000000 0.000000 0.000000 -0.000000 90.000000 0.000000 -2.309062 0.000000 0.000000 2.309062 0.000000 0.000000 8.520406 0.000000 0.000000 1.905762 0.000000 -0.000000 -4.658285 0.000000 0.000000 -0.000000 0.000000 0.000000 8.520406 0.000000 0.000000 1.905762 0.000000 -0.000000 -4.658285 0.000000 0.000000 -0.000000 0.000000
-231.997710 57.356622 137.908369 -177.939483 -30.975850 -1.334306 -0.496698 21.641038 2.763414 -0.178236 2.919902 0.383764 -0.280323 4.746680 0.619282 -0.812190 18.296587 2.319438 -0.774316 12.550110 0.700478 -1.756052 -12.491481 1.649166 3.853767 -3.985302 -1.967042 14.698372 -17.979306 -23.501511 143.379064 -70.379896 -101.769299 15.319249 -13.392739 -49.736022 -7.635340 -5.259973 -3.188917 0.383936 -9.456952 0.704881 15.241153 -74.307423 -50.230745 -9.305267 8.250548 11.862926 6.616630 -44.215600 -8.662831 -7.013553 68.733798 -10.421804 4.771462 21.826866 5.352048 -0.825570 -15.195452 5.898276 -9.622414 -42.981112 0.588008 31.947505 69.576835 32.769192 -15.381992 2.730195 -5.618785 0.013117 0.313504 0.018546
-231.998844 57.356428 137.911076 -177.945394 -30.955229 -1.337067 -0.489784 21.617937 2.769437 -0.177439 2.915223 0.383025 -0.279203 4.741887 0.619022 -0.811111 18.298441 2.320880 -0.781627 12.537675 0.692568 -1.772473 -12.496080 1.639683 3.854040 -3.979142 -1.968736 14.687087 -17.990191 -23.489882 143.362339 -70.391188 -101.753125 15.315520 -13.387870 -49.722149 -7.647920 -5.257298 -3.179950 0.396099 -9.451096 0.696778 15.219170 -74.307077 -50.221102 -9.297861 8.253941 11.872438 6.617607 -44.236094 -8.656538 -7.030378 68.716503 -10.444188 4.779289 21.851588 5.367606 -0.835940 -15.203892 5.893690 -9.609437 -42.997924 0.597069 31.912288 69.577075 32.742415 -15.388351 2.730904 -5.624637 0.024459 0.313927 0.024132
-232.001439 57.356871 137.913124 -177.951649 -30.939334 -1.334829 -0.484372 21.601204 2.770568 -0.176564 2.910211 0.383013 -0.277791 4.737559 0.619370 -0.798824 18.278741 2.320711 -0.798631 12.531347 0.678245 -1.788341 -12.484661 1.639558 3.840692 -3.954241 -1.964574 14.682259 -17.998553 -23.480205 143.353086 -70.399893 -101.740029 15.317131 -13.385213 -49.712888 -7.672837 -5.234682 -3.171970 0.409937 -9.444834 0.694979 15.210847 -74.303471 -50.224747 -9.293890 8.250947 11.879606 6.617904 -44.254801 -8.656929 -7.023710 68.709043 -10.442268 4.770403 21.873072 5.379627 -0.823513 -15.214471 5.879881 -9.604462 -43.011786 0.602362 31.899734 69.578179 32.728618 -15.388241 2.733844 -5.623035 0.036768 0.311159 0.022914
-232.004899 57.358473 137.913437 -177.948016 -30.935195 -1.336351 -0.490524 21.597222 2.763224 -0.175472 2.907942 0.383142 -0.267642 4.727611 0.613697 -0.792439 18.278734 2.329521 -0.806565 12.528062 0.673082 -1.803291 -12.491989 1.631727 3.820822 -3.955122 -1.966790 14.687212 -17.995522 -23.462803 143.367479 -70.413413 -101.748963 15.326373 -13.379497 -49.706447 -7.692328 -5.228559 -3.161302 0.413669 -9.443460 0.703134 15.211179 -74.294841 -50.240836 -9.289517 8.250523 11.895237 6.608308 -44.260636 -8.657823 -7.008360 68.705687 -10.433589 4.774991 21.885820 5.387229 -0.822396 -15.222992 5.875574 -9.604270 -43.012493 0.603211 31.886241 69.578675 32.714344 -15.393565 2.734070 -5.622902 0.041242 0.309459 0.025157
-232.008027 57.359365 137.914910 -177.945543 -30.922301 -1.341727 -0.479632 21.583144 2.761568 -0.171799 2.903107 0.382015 -0.272791 4.726553 0.620298 -0.786873 18.272954 2.332941 -0.813916 12.525656 0.669009 -1.823164 -12.514045 1.611832 3.804577 -3.948706 -1.963140 14.689948 -17.997696 -23.452309 143.370085 -70.426639 -101.750578 15.329614 -13.372035 -49.697595 -7.713356 -5.223327 -3.151704 0.421989 -9.439152 0.709982 15.240685 -74.289809 -50.272632 -9.294857 8.257206 11.898715 6.597065 -44.274729 -8.658049 -6.974003 68.698686 -10.413943 4.842604 21.895136 5.406168 -0.817874 -15.236897 5.876043 -9.614798 -43.023848 0.614080 31.886435 69.581302 32.709430 -15.391592 2.734722 -5.619719 0.038460 0.307307 0.024033
-232.011675 57.360605 137.915618 -177.939439 -30.913605 -1.347604 -0.478061 21.571980 2.759835 -0.172804 2.900950 0.383614 -0.271713 4.725411 0.621397 -0.782947 18.264822 2.335295 -0.819241 12.524713 0.665221 -1.828084 -12.503907 1.616605 3.794734 -3.939998 -1.959820 14.692057 -18.002550 -23.446171 143.361918 -70.449045 -101.734233 15.336451 -13.364100 -49.705368 -7.725998 -5.213297 -3.146607 0.427127 -9.436131 0.712440 15.217076 -74.281838 -50.264861 -9.290156 8.252842 11.930231 6.590628 -44.280907 -8.654378 -6.967930 68.689267 -10.414913 4.827308 21.908903 5.417081 -0.848501 -15.237913 5.879793 -9.631431 -43.029242 0.625904 31.896756 69.581725 32.710122 -15.398601 2.729831 -5.615442 0.035542 0.309622 0.020608
-232.016037 57.362025 137.915570 -177.933946 -30.908537 -1.349263 -0.483301 21.564717 2.755609 -0.172275 2.898353 0.383724 -0.270730 4.728203 0.622746 -0.781476 18.259395 2.335774 -0.821720 12.516613 0.661305 -1.834050 -12.504549 1.608780 3.796088 -3.936602 -1.965284 14.679652 -18.007989 -23.432511 143.348715 -70.468740 -101.708734 15.335019 -13.356183 -49.702107 -7.732925 -5.209378 -3.144146 0.432841 -9.433466 0.714712 15.151067 -74.255429 -50.213247 -9.288803 8.228133 11.948812 6.592936 -44.282607 -8.659731 -6.970990 68.682099 -10.415496 4.795267 21.919203 5.415654 -0.823716 -15.240045 5.873034 -9.641772 -43.032114 0.630759 31.874054 69.589125 32.675684 -15.376809 2.732569 -5.607827 0.025844 0.307970 0.020430
-232.020685 57.363422 137.914977 -177.928717 -30.904907 -1.347973 -0.492334 21.559284 2.749145 -0.172005 2.895729 0.383913 -0.268247 4.723727 0.620741 -0.779154 18.260389 2.338068 -0.824005 12.512611 0.659856 -1.842791 -12.523332 1.586870 3.801745 -3.930971 -1.974593 14.655399 -18.016867 -23.413871 143.352162 -70.509692 -101.698920 15.353405 -13.363004 -49.685683 -7.748419 -5.209819 -3.135342 0.440036 -9.434485 0.720755 15.166807 -74.232748 -50.227851 -9.279080 8.229906 11.954188 6.603174 -44.282146 -8.670451 -6.984241 68.676752 -10.421811 4.749297 21.925598 5.413107 -0.812505 -15.236363 5.867951 -9.653977 -43.035951 0.629762 31.885052 69.590387 32.678803 -15.377831 2.741051 -5.604597 0.027682 0.299127 0.016932
-232.023852 57.363834 137.915276 -177.923164 -30.891737 -1.352979 -0.500359 21.544885 2.748830 -0.170298 2.894927 0.384854 -0.270384 4.713038 0.621393 -0.774722 18.256973 2.341679 -0.826744 12.524827 0.654839 -1.846244 -12.532442 1.576128 3.808516 -3.915114 -1.985073 14.638731 -18.036921 -23.386588 143.301354 -70.516435 -101.630542 15.339820 -13.357750 -49.670438 -7.754990 -5.200220 -3.136947 0.446220 -9.429985 0.718950 15.165715 -74.226885 -50.228634 -9.250470 8.252693 11.962465 6.603701 -44.293236 -8.673151 -6.987728 68.672020 -10.426877 4.755007 21.925394 5.418144 -0.837916 -15.231495 5.876647 -9.670788 -43.052253 0.638677 31.901326 69.594912 32.689372 -15.374862 2.751302 -5.604410 0.024653 0.288929 0.016757
-232.027397 57.364529 137.914404 -177.916122 -30.883141 -1.353247 -0.509660 21.536065 2.743837 -0.171768 2.892910 0.384576 -0.270407 4.711455 0.621583 -0.779172 18.242692 2.344673 -0.826663 12.529677 0.647509 -1.845842 -12.527650 1.566376 3.822223 -3.897459 -1.994213 14.634684 -18.046609 -23.375585 143.277055 -70.541481 -101.597678 15.344535 -13.357429 -49.658906 -7.750222 -5.193033 -3.142778 0.447879 -9.425548 0.727839 15.151632 -74.204776 -50.222249 -9.245724 8.242261 11.973048 6.608224 -44.299189 -8.682041 -6.985618 68.671721 -10.426132 4.753483 21.919909 5.419960 -0.803808 -15.230488 5.871267 -9.677751 -43.061725 0.636973 31.898367 69.599157 32.679666 -15.364623 2.759153 -5.596274 0.021619 0.282953 0.013260
-232.029133 57.365513 137.912407 -177.899838 -30.877883 -1.365216 -0.522504 21.531711 2.747227 -0.172079 2.892047 0.384414 -0.270474 4.709280 0.621876 -0.778803 18.243641 2.345420 -0.834833 12.515226 0.640589 -1.845738 -12.517386 1.561812 3.824830 -3.896546 -1.996568 14.637630 -18.053200 -23.371411 143.259773 -70.559618 -101.576479 15.343758 -13.354594 -49.652207 -7.751024 -5.193483 -3.143345 0.448820 -9.427898 0.734087 15.093982 -74.173156 -50.167994 -9.246059 8.216851 11.978047 6.601293 -44.298606 -8.673785 -6.990309 68.674036 -10.431561 4.733326 21.898760 5.408642 -0.796042 -15.215400 5.882806 -9.692963 -43.066178 0.638855 31.902288 69.600845 32.681163 -15.350605 2.764298 -5.587357 0.010808 0.279550 0.008761
